<svg width="640" height="124" viewBox="0 0 640 124" fill="none" xmlns="http://www.w3.org/2000/svg">
<g clip-path="url(#clip0_1892_2)">
<path d="M41.6164 94.7898C42.3941 98.8047 48.063 98.9783 49.0838 95.0186L53.4276 78.1676H81.0474L78.7743 82.1887C76.4226 85.6781 74.5162 87.9792 72.4022 89.8242C70.2714 91.6833 67.7809 93.2094 64.1055 94.9704C62.3444 95.8145 61.5991 97.9296 62.441 99.6948C63.2833 101.46 65.3941 102.207 67.1554 101.363C71.1399 99.4539 74.252 97.6057 77.045 95.1682C79.8328 92.7355 82.1539 89.8463 84.7131 86.0377L84.7891 85.9241L84.8565 85.8048L89.1729 78.1676H96.3534C96.4371 79.2626 96.4801 80.3692 96.4801 81.4857C96.4801 104.964 77.6867 124 54.5002 124C31.3138 124 12.5203 104.964 12.5203 81.4857C12.5203 80.3396 12.5657 79.2041 12.6535 78.0811H14.4435C15.64 78.0811 16.7679 77.5204 17.4922 76.5659L19.3656 74.0965L22.7802 86.6784C23.8324 90.5555 29.3682 90.4114 30.2182 86.485L35.3839 62.6212L41.6164 94.7898ZM54.5002 0.147705C55.9876 0.147705 57.2503 1.10841 57.706 2.44387L73.9211 28.4121L73.9238 28.4161L73.9259 28.4205C77.4598 34.987 81.72 40.9097 85.5111 47.1431C88.397 51.8878 91.0018 56.8 92.7782 62.2782C89.9949 63.8178 87.7574 66.5246 85.7512 69.8481L85.725 69.8915L85.7 69.9357L85.0521 71.0819H50.9179C49.2261 71.0819 47.7419 72.1928 47.2537 73.8028L47.2098 73.9598L45.8244 79.3341L39.3197 45.7587L39.2787 45.5698C38.3599 41.7237 32.8648 41.6635 31.8623 45.4883L31.8175 45.6766L26.1212 71.99L24.4624 65.8774L24.421 65.7351C23.5046 62.7821 19.6109 62.0671 17.7183 64.5615L14.3661 68.9792C14.5098 68.5059 14.6611 68.0362 14.8204 67.57C16.4036 59.8737 19.7423 53.3643 23.5634 47.1425C27.3912 40.9094 31.6882 34.9864 35.2219 28.4205L35.2239 28.4164L35.2263 28.4127L51.2938 2.44445C51.7496 1.10863 53.0125 0.147705 54.5002 0.147705ZM93.7557 61.7963C97.2098 60.2956 100.716 60.8333 104.115 62.3847C104.382 62.5067 104.637 62.6605 104.871 62.8427C107.599 64.9589 109.933 68.4805 108.596 72.336C107.291 76.0994 103.276 77.7702 99.0242 78.1531L98.8666 78.1676H96.3534C96.1687 75.7431 95.7831 73.3756 95.2133 71.0819H98.5323C100.036 70.9319 100.965 70.6062 101.477 70.3207C101.702 70.195 101.823 70.0919 101.884 70.029C101.873 69.9936 101.856 69.9452 101.828 69.8829C101.706 69.616 101.415 69.1835 100.824 68.6748C98.7497 67.7953 97.5177 67.8847 96.5679 68.2972C96.0462 68.5239 95.4593 68.9122 94.8009 69.5437C94.6091 68.8788 94.4023 68.2207 94.1796 67.57C93.804 65.7434 93.3309 63.9835 92.7782 62.2782C93.0967 62.1019 93.4222 61.941 93.7557 61.7963ZM14.3661 68.9792C13.4821 71.8923 12.8993 74.9385 12.6535 78.0811H3.53515C1.58277 78.0811 5.58745e-05 76.4948 0 74.5382C0 72.5814 1.58274 70.9954 3.53515 70.9954H12.8368L14.3661 68.9792ZM94.8009 69.5437C94.9476 70.0524 95.0852 70.5652 95.2133 71.0819H93.4428C93.9257 70.4542 94.3782 69.949 94.8009 69.5437Z" fill="#DC2418"/>
</g>
<g clip-path="url(#clip1_1892_2)">
<path d="M173.8 47.776C173.8 53.344 172.168 57.856 168.904 61.312C165.64 64.704 161.256 66.4 155.752 66.4C153.704 66.4 151.912 66.08 150.376 65.44C148.84 64.736 148.072 63.584 148.072 61.984C152.936 61.984 156.52 60.864 158.824 58.624C161.128 56.384 162.28 52.896 162.28 48.16C162.28 44.128 161.288 41.152 159.304 39.232C157.384 37.248 154.408 36.256 150.376 36.256C148.392 36.256 146.344 36.416 144.232 36.736V93.28H133V30.304C140.552 29.792 146.568 29.536 151.048 29.536C158.344 29.536 163.944 30.976 167.848 33.856C171.816 36.672 173.8 41.312 173.8 47.776ZM222.003 66.976C222.003 73.44 221.427 78.72 220.275 82.816C219.187 86.848 217.139 89.952 214.131 92.128C211.123 94.304 206.771 95.392 201.075 95.392C195.571 95.392 191.283 94.496 188.211 92.704C185.203 90.848 183.091 88.096 181.875 84.448C180.659 80.8 180.051 76.032 180.051 70.144V29.92H191.283V69.088C191.283 73.312 191.475 76.768 191.859 79.456C192.307 82.08 193.299 84.288 194.835 86.08C196.371 87.808 198.707 88.672 201.843 88.672C204.979 88.672 207.315 87.744 208.851 85.888C210.387 83.968 211.347 81.6 211.731 78.784C212.115 75.968 212.307 72.384 212.307 68.032V29.92H222.003V66.976ZM233.031 29.92H244.263V86.176H265.191L264.519 93.28H233.031V29.92ZM289.133 28C294.637 28 299.053 29.056 302.381 31.168C305.773 33.28 307.469 36.672 307.469 41.344C307.469 43.648 306.797 45.536 305.453 47.008C304.109 48.416 302.285 49.12 299.981 49.12C297.741 49.12 296.077 48.608 294.989 47.584C295.501 46.176 295.757 44.576 295.757 42.784C295.757 37.152 293.261 34.336 288.269 34.336C285.837 34.336 283.917 34.944 282.509 36.16C281.165 37.312 280.493 39.04 280.493 41.344C280.493 43.456 281.037 45.376 282.125 47.104C283.213 48.832 284.557 50.368 286.157 51.712C287.821 53.056 290.061 54.688 292.877 56.608C296.205 58.848 298.861 60.864 300.845 62.656C302.893 64.384 304.621 66.496 306.029 68.992C307.437 71.424 308.141 74.24 308.141 77.44C308.141 83.136 306.189 87.552 302.285 90.688C298.381 93.824 293.325 95.392 287.117 95.392C281.485 95.392 276.813 94.272 273.101 92.032C269.453 89.728 267.629 86.176 267.629 81.376C267.629 79.072 268.301 77.216 269.645 75.808C270.989 74.336 272.781 73.6 275.021 73.6C277.261 73.6 278.925 74.112 280.013 75.136C279.565 76.416 279.341 78.016 279.341 79.936C279.341 86.016 282.221 89.056 287.981 89.056C290.797 89.056 293.101 88.288 294.893 86.752C296.685 85.152 297.581 83.008 297.581 80.32C297.581 78.208 297.037 76.288 295.949 74.56C294.861 72.832 293.485 71.296 291.821 69.952C290.221 68.608 288.013 66.976 285.197 65.056C281.869 62.816 279.181 60.832 277.133 59.104C275.149 57.312 273.453 55.2 272.045 52.768C270.637 50.272 269.933 47.424 269.933 44.224C269.933 39.104 271.725 35.136 275.309 32.32C278.957 29.44 283.565 28 289.133 28ZM348.91 29.92V37.024H327.982V57.184H346.03V64.288H327.982V86.176H350.254L349.582 93.28H316.75V29.92H348.91ZM393.404 29.92L392.732 37.024H377.948V93.28H366.716V37.024H351.644V29.92H393.404ZM441.343 29.92V93.28H430.111V64.768H408.607V93.28H397.375V29.92H408.607V57.664H430.111V29.92H441.343ZM493.675 47.296C493.675 51.648 492.555 55.36 490.315 58.432C488.139 61.504 485.131 63.584 481.291 64.672L497.995 93.28H485.707L468.619 62.944C468.235 62.24 468.043 61.6 468.043 61.024C472.843 61.024 476.395 59.968 478.699 57.856C481.003 55.68 482.155 52.288 482.155 47.68C482.155 43.84 481.163 40.992 479.179 39.136C477.259 37.216 474.283 36.256 470.251 36.256C468.267 36.256 466.219 36.416 464.107 36.736V93.28H452.875V30.304C460.427 29.792 466.443 29.536 470.923 29.536C486.091 29.536 493.675 35.456 493.675 47.296ZM536.035 29.92V37.024H515.107V57.184H533.155V64.288H515.107V86.176H537.379L536.707 93.28H503.875V29.92H536.035ZM572.081 29.92L588.497 93.28H577.169L573.329 77.152H554.513L550.769 93.28H540.209L557.777 29.92H572.081ZM556.241 70.048H571.697L563.921 37.12L556.241 70.048ZM594.25 30.304C601.802 29.792 608.458 29.536 614.218 29.536C630.986 29.536 639.37 39.712 639.37 60.064C639.37 82.848 630.218 94.24 611.914 94.24C606.538 94.24 600.65 93.76 594.25 92.8V30.304ZM611.914 87.52C616.394 87.52 619.786 86.4 622.09 84.16C624.394 81.92 625.898 78.976 626.602 75.328C627.306 71.616 627.658 66.976 627.658 61.408C627.658 53.984 626.666 47.936 624.682 43.264C622.698 38.592 618.986 36.256 613.546 36.256C611.178 36.256 608.49 36.416 605.482 36.736V86.944C607.786 87.328 609.93 87.52 611.914 87.52Z" fill="#DC2418"/>
</g>
<defs>
<clipPath id="clip0_1892_2">
<rect width="109" height="124" fill="white"/>
</clipPath>
<clipPath id="clip1_1892_2">
<rect width="507" height="68" fill="white" transform="translate(133 28)"/>
</clipPath>
</defs>
</svg>
